<svg width="34" height="34" viewBox="0 0 34 34" fill="none" xmlns="http://www.w3.org/2000/svg">
<path d="M21.2868 9.72262C21.6612 9.72262 21.9651 9.41946 21.9651 9.04429C21.9651 8.66921 21.6612 8.36597 21.2868 8.36597H11.9732C11.5988 8.36597 11.2949 8.66912 11.2949 9.04429C11.2949 9.41938 11.5988 9.72262 11.9732 9.72262H21.2868Z" fill="#F5C661"/>
<path d="M30.6296 8.36605H26.0091C25.6346 8.36605 25.3307 8.66921 25.3307 9.04438C25.3307 9.41946 25.6346 9.7227 26.0091 9.7227H29.9513V32.6435H4.04871V9.72262H7.76502C8.13944 9.72262 8.44335 9.41946 8.44335 9.04429C8.44335 8.66921 8.13944 8.36597 7.76502 8.36597H3.37046C2.99605 8.36597 2.69214 8.66912 2.69214 9.04429V33.3217C2.69214 33.6968 2.99605 34 3.37046 34H30.6296C31.004 34 31.3079 33.6969 31.3079 33.3217V9.04429C31.3079 8.66921 31.0047 8.36605 30.6296 8.36605Z" fill="#F5C661"/>
<path d="M23.5809 11.2481C23.9553 11.2481 24.2592 10.9449 24.2592 10.5698V5.62371C24.2591 2.52322 20.9118 0 16.781 0C12.6665 0 9.31982 2.52322 9.31982 5.62371V10.5698C9.31982 10.9449 9.62373 11.2482 9.99815 11.2482C10.3726 11.2482 10.6765 10.945 10.6765 10.5698V5.62371C10.6765 3.27072 13.4154 1.35657 16.798 1.35657C20.1637 1.35657 22.9026 3.27072 22.9026 5.62371V10.5698C22.9025 10.9449 23.2058 11.2481 23.5809 11.2481Z" fill="#F5C661"/>
<path d="M8.2522 12.3136C8.2522 13.2754 9.03566 14.0582 9.99812 14.0582C10.9606 14.0582 11.744 13.2755 11.744 12.3136C11.744 11.9385 11.4401 11.6353 11.0657 11.6353C10.6913 11.6353 10.3874 11.9384 10.3874 12.3136C10.3874 12.5273 10.2131 12.7016 9.99804 12.7016C9.78367 12.7016 9.60868 12.5273 9.60868 12.3136C9.60868 11.9385 9.30477 11.6353 8.93036 11.6353C8.55594 11.6353 8.2522 11.9385 8.2522 12.3136Z" fill="#F5C661"/>
<path d="M23.5808 14.0582C24.5433 14.0582 25.3267 13.2755 25.3267 12.3136C25.3267 11.9385 25.0228 11.6353 24.6484 11.6353C24.274 11.6353 23.9701 11.9384 23.9701 12.3136C23.9701 12.5273 23.7958 12.7016 23.5807 12.7016C23.3657 12.7016 23.1914 12.5273 23.1914 12.3136C23.1914 11.9385 22.8875 11.6353 22.513 11.6353C22.1386 11.6353 21.8347 11.9384 21.8347 12.3136C21.8349 13.2754 22.6183 14.0582 23.5808 14.0582Z" fill="#F5C661"/>
</svg>
