<svg width="34" height="34" viewBox="0 0 34 34" fill="none" xmlns="http://www.w3.org/2000/svg">
<path d="M21.2863 9.72262C21.6607 9.72262 21.9647 9.41946 21.9647 9.04429C21.9647 8.66921 21.6607 8.36597 21.2863 8.36597H11.9728C11.5983 8.36597 11.2944 8.66912 11.2944 9.04429C11.2944 9.41938 11.5983 9.72262 11.9728 9.72262H21.2863Z" fill="#FF0000"/>
<path d="M30.6294 8.36605H26.0088C25.6344 8.36605 25.3305 8.66921 25.3305 9.04438C25.3305 9.41946 25.6344 9.7227 26.0088 9.7227H29.951V32.6435H4.04846V9.72262H7.76478C8.1392 9.72262 8.4431 9.41946 8.4431 9.04429C8.4431 8.66921 8.1392 8.36597 7.76478 8.36597H3.37022C2.9958 8.36597 2.69189 8.66912 2.69189 9.04429V33.3217C2.69189 33.6968 2.9958 34 3.37022 34H30.6294C31.0038 34 31.3077 33.6969 31.3077 33.3217V9.04429C31.3077 8.66921 31.0044 8.36605 30.6294 8.36605Z" fill="#FF0000"/>
<path d="M23.5804 11.2481C23.9548 11.2481 24.2587 10.9449 24.2587 10.5698V5.62371C24.2586 2.52322 20.9113 0 16.7805 0C12.666 0 9.31934 2.52322 9.31934 5.62371V10.5698C9.31934 10.9449 9.62324 11.2482 9.99766 11.2482C10.3721 11.2482 10.676 10.945 10.676 10.5698V5.62371C10.676 3.27072 13.4149 1.35657 16.7975 1.35657C20.1632 1.35657 22.9021 3.27072 22.9021 5.62371V10.5698C22.902 10.9449 23.2053 11.2481 23.5804 11.2481Z" fill="#FF0000"/>
<path d="M8.25195 12.3137C8.25195 13.2755 9.03542 14.0583 9.99788 14.0583C10.9603 14.0583 11.7438 13.2755 11.7438 12.3137C11.7438 11.9386 11.4399 11.6353 11.0655 11.6353C10.6911 11.6353 10.3871 11.9385 10.3871 12.3137C10.3871 12.5274 10.2128 12.7017 9.99779 12.7017C9.78342 12.7017 9.60844 12.5274 9.60844 12.3137C9.60844 11.9386 9.30453 11.6353 8.93011 11.6353C8.55569 11.6353 8.25195 11.9386 8.25195 12.3137Z" fill="#FF0000"/>
<path d="M23.5806 14.0583C24.543 14.0583 25.3265 13.2755 25.3265 12.3137C25.3265 11.9386 25.0226 11.6353 24.6482 11.6353C24.2737 11.6353 23.9698 11.9385 23.9698 12.3137C23.9698 12.5274 23.7955 12.7017 23.5805 12.7017C23.3654 12.7017 23.1911 12.5274 23.1911 12.3137C23.1911 11.9386 22.8872 11.6353 22.5128 11.6353C22.1384 11.6353 21.8345 11.9385 21.8345 12.3137C21.8346 13.2755 22.618 14.0583 23.5806 14.0583Z" fill="#FF0000"/>
</svg>
