<svg width="30" height="34" viewBox="0 0 30 34" fill="none" xmlns="http://www.w3.org/2000/svg">
<path d="M19.2868 9.72262C19.6612 9.72262 19.9651 9.41946 19.9651 9.04429C19.9651 8.66921 19.6612 8.36597 19.2868 8.36597H9.97325C9.59883 8.36597 9.29492 8.66912 9.29492 9.04429C9.29492 9.41938 9.59883 9.72262 9.97325 9.72262H19.2868Z" fill="#F5C661"/>
<path d="M28.6296 8.36605H24.0091C23.6346 8.36605 23.3307 8.66921 23.3307 9.04438C23.3307 9.41946 23.6346 9.7227 24.0091 9.7227H27.9513V32.6435H2.04871V9.72262H5.76502C6.13944 9.72262 6.44335 9.41946 6.44335 9.04429C6.44335 8.66921 6.13944 8.36597 5.76502 8.36597H1.37046C0.996046 8.36597 0.692139 8.66912 0.692139 9.04429V33.3217C0.692139 33.6968 0.996046 34 1.37046 34H28.6296C29.004 34 29.3079 33.6969 29.3079 33.3217V9.04429C29.3079 8.66921 29.0047 8.36605 28.6296 8.36605Z" fill="#F5C661"/>
<path d="M21.5809 11.2481C21.9553 11.2481 22.2592 10.9449 22.2592 10.5698V5.62371C22.2591 2.52322 18.9118 0 14.781 0C10.6665 0 7.31982 2.52322 7.31982 5.62371V10.5698C7.31982 10.9449 7.62373 11.2482 7.99815 11.2482C8.37257 11.2482 8.67648 10.945 8.67648 10.5698V5.62371C8.67648 3.27072 11.4154 1.35657 14.798 1.35657C18.1637 1.35657 20.9026 3.27072 20.9026 5.62371V10.5698C20.9025 10.9449 21.2058 11.2481 21.5809 11.2481Z" fill="#F5C661"/>
<path d="M6.2522 12.3136C6.2522 13.2754 7.03566 14.0582 7.99812 14.0582C8.96058 14.0582 9.74405 13.2755 9.74405 12.3136C9.74405 11.9385 9.44014 11.6353 9.06572 11.6353C8.6913 11.6353 8.38739 11.9384 8.38739 12.3136C8.38739 12.5273 8.21308 12.7016 7.99804 12.7016C7.78367 12.7016 7.60868 12.5273 7.60868 12.3136C7.60868 11.9385 7.30477 11.6353 6.93036 11.6353C6.55594 11.6353 6.2522 11.9385 6.2522 12.3136Z" fill="#F5C661"/>
<path d="M21.5808 14.0582C22.5433 14.0582 23.3267 13.2755 23.3267 12.3136C23.3267 11.9385 23.0228 11.6353 22.6484 11.6353C22.274 11.6353 21.9701 11.9384 21.9701 12.3136C21.9701 12.5273 21.7958 12.7016 21.5807 12.7016C21.3657 12.7016 21.1914 12.5273 21.1914 12.3136C21.1914 11.9385 20.8875 11.6353 20.513 11.6353C20.1386 11.6353 19.8347 11.9384 19.8347 12.3136C19.8349 13.2754 20.6183 14.0582 21.5808 14.0582Z" fill="#F5C661"/>
</svg>
