<svg width="21" height="17" viewBox="0 0 21 17" fill="none" xmlns="http://www.w3.org/2000/svg">
<path d="M20.2616 5.46114C20.0044 5.2237 19.668 5.0654 19.2921 5.0654C19.3119 5.0654 19.3316 5.0654 19.3514 5.0654V3.02737C19.3514 2.19633 19.0151 1.44443 18.461 0.890403C17.907 0.336374 17.1551 0 16.3241 0H3.02737C2.19633 0 1.44443 0.336374 0.890403 0.890403C0.336374 1.44443 0 2.19633 0 3.02737V13.2571C0 14.0882 0.336374 14.84 0.890403 15.3941C1.44443 15.9481 2.19633 16.2845 3.02737 16.2845H16.3241C17.1551 16.2845 17.907 15.9481 18.461 15.3941C19.0151 14.84 19.3514 14.0882 19.3514 13.2571V11.1993C19.3316 11.1993 19.3119 11.1993 19.2921 11.1993C19.668 11.1993 20.0044 11.041 20.2616 10.8036C20.4991 10.5661 20.6574 10.21 20.6574 9.83401V6.43069C20.6574 6.05474 20.4991 5.71837 20.2616 5.46114ZM18.2632 13.2373C18.2632 13.7716 18.0455 14.2464 17.6893 14.6026C17.3332 14.9588 16.8583 15.1764 16.3241 15.1764H3.02737C2.49313 15.1764 2.01825 14.9588 1.66209 14.6026C1.30592 14.2464 1.08827 13.7716 1.08827 13.2373V3.02737C1.08827 2.49313 1.30592 2.01825 1.66209 1.66209C2.01825 1.30592 2.49313 1.08827 3.02737 1.08827H16.3241C16.8583 1.08827 17.3332 1.30592 17.6893 1.66209C18.0455 2.01825 18.2632 2.49313 18.2632 3.02737V5.0654H12.1293C11.2982 5.0654 10.5661 5.40178 10.0121 5.93602C9.47785 6.47026 9.14147 7.22216 9.14147 8.0532V8.19171C9.14147 9.02275 9.47785 9.75486 10.0121 10.3089C10.5463 10.8431 11.2982 11.1795 12.1293 11.1795H18.2632V13.2373ZM19.5691 9.83401C19.5691 9.91315 19.5295 9.9923 19.4899 10.0319C19.4306 10.0912 19.3712 10.111 19.2921 10.111H12.1293C11.6148 10.111 11.1201 9.89337 10.7838 9.55699C10.4474 9.22062 10.2297 8.72595 10.2297 8.21149V8.07299C10.2297 7.53875 10.4474 7.06386 10.7838 6.72749C11.1399 6.37133 11.6148 6.17346 12.1293 6.17346H19.2921C19.3712 6.17346 19.4504 6.21303 19.4899 6.25261C19.5493 6.31197 19.5691 6.37133 19.5691 6.45048V9.83401Z" fill="black"/>
</svg>
